<mxfile host="app.diagrams.net" modified="2021-01-11T17:16:33.380Z" agent="5.0 (Windows)" etag="aTtDLr-C7tWNUsgZHG8i" version="14.1.9" type="github">
  <diagram id="6a731a19-8d31-9384-78a2-239565b7b9f0" name="Page-1">
    <mxGraphModel dx="2103" dy="1157" grid="1" gridSize="10" guides="1" tooltips="1" connect="1" arrows="1" fold="1" page="1" pageScale="1" pageWidth="1169" pageHeight="827" background="#ffffff" math="0" shadow="0">
      <root>
        <mxCell id="0" />
        <mxCell id="1" parent="0" />
        <mxCell id="wKgS_p8YZRCs9jAlfxQY-1542" value="&lt;div&gt;&lt;font style=&quot;font-size: 20px&quot;&gt;&lt;b&gt;STRUCTURE&lt;/b&gt;&lt;/font&gt;&lt;/div&gt;&lt;div&gt;&lt;font style=&quot;font-size: 20px&quot;&gt;&lt;b&gt; &amp;amp;&lt;/b&gt;&lt;/font&gt;&lt;/div&gt;&lt;div&gt;&lt;font style=&quot;font-size: 20px&quot;&gt;&lt;b&gt; ENVELOPPE&lt;/b&gt;&lt;/font&gt;&lt;/div&gt;" style="ellipse;whiteSpace=wrap;html=1;aspect=fixed;sketch=1;" vertex="1" parent="1">
          <mxGeometry x="1670" y="1200" width="150" height="150" as="geometry" />
        </mxCell>
        <mxCell id="wKgS_p8YZRCs9jAlfxQY-1544" value="" style="triangle;whiteSpace=wrap;html=1;rotation=90;fillColor=#000000;" vertex="1" parent="1">
          <mxGeometry x="1405" y="854" width="680" height="27" as="geometry" />
        </mxCell>
        <mxCell id="wKgS_p8YZRCs9jAlfxQY-1545" value="" style="triangle;whiteSpace=wrap;html=1;rotation=-150;fillColor=#000000;" vertex="1" parent="1">
          <mxGeometry x="1770" y="1460" width="680" height="27" as="geometry" />
        </mxCell>
        <mxCell id="wKgS_p8YZRCs9jAlfxQY-1547" value="" style="triangle;whiteSpace=wrap;html=1;rotation=-30;fillColor=#000000;" vertex="1" parent="1">
          <mxGeometry x="1040" y="1460" width="680" height="27" as="geometry" />
        </mxCell>
        <mxCell id="wKgS_p8YZRCs9jAlfxQY-1549" value="&lt;font style=&quot;font-size: 25px&quot; face=&quot;Tahoma&quot;&gt;&lt;b&gt;&lt;font style=&quot;font-size: 25px&quot;&gt;SOCIO-CULTUREL&lt;/font&gt;&lt;/b&gt;&lt;/font&gt;" style="text;html=1;strokeColor=none;fillColor=none;align=center;verticalAlign=middle;whiteSpace=wrap;rounded=0;sketch=1;rotation=31;" vertex="1" parent="1">
          <mxGeometry x="2370" y="1700" width="281.84" height="20" as="geometry" />
        </mxCell>
        <mxCell id="wKgS_p8YZRCs9jAlfxQY-1552" value="&lt;font style=&quot;font-size: 25px&quot; face=&quot;Tahoma&quot;&gt;&lt;b&gt;&lt;font style=&quot;font-size: 25px&quot;&gt;SOCIO-ECONOMIQUE&lt;/font&gt;&lt;/b&gt;&lt;/font&gt;" style="text;whiteSpace=wrap;html=1;rotation=-30;" vertex="1" parent="1">
          <mxGeometry x="820" y="1690" width="300" height="40" as="geometry" />
        </mxCell>
        <mxCell id="wKgS_p8YZRCs9jAlfxQY-1555" value="&lt;font style=&quot;font-size: 25px&quot;&gt;&lt;b&gt;ENVIRONNEMENTAL&lt;/b&gt;&lt;/font&gt;" style="text;html=1;strokeColor=none;fillColor=none;align=center;verticalAlign=middle;whiteSpace=wrap;rounded=0;sketch=1;rotation=-90;" vertex="1" parent="1">
          <mxGeometry x="1604.08" y="360" width="281.84" height="20" as="geometry" />
        </mxCell>
        <mxCell id="wKgS_p8YZRCs9jAlfxQY-1561" value="" style="ellipse;whiteSpace=wrap;html=1;aspect=fixed;sketch=1;strokeColor=#82b366;fillColor=none;" vertex="1" parent="1">
          <mxGeometry x="1480" y="700" width="120" height="120" as="geometry" />
        </mxCell>
        <mxCell id="wKgS_p8YZRCs9jAlfxQY-1574" value="&lt;div style=&quot;font-size: 30px&quot;&gt;&lt;b&gt;&lt;font style=&quot;font-size: 30px&quot;&gt;Habitat sain et naturel&lt;/font&gt;&lt;/b&gt;&lt;/div&gt;" style="text;html=1;strokeColor=none;fillColor=none;align=center;verticalAlign=middle;whiteSpace=wrap;rounded=0;sketch=1;" vertex="1" parent="1">
          <mxGeometry x="980" y="844.5" width="180" height="46" as="geometry" />
        </mxCell>
        <mxCell id="wKgS_p8YZRCs9jAlfxQY-1575" value="" style="ellipse;whiteSpace=wrap;html=1;aspect=fixed;sketch=1;strokeColor=#82b366;fillColor=none;" vertex="1" parent="1">
          <mxGeometry x="1000" y="707" width="120" height="120" as="geometry" />
        </mxCell>
        <mxCell id="wKgS_p8YZRCs9jAlfxQY-1576" value="" style="ellipse;whiteSpace=wrap;html=1;aspect=fixed;sketch=1;strokeColor=#82b366;fillColor=none;" vertex="1" parent="1">
          <mxGeometry x="1260" y="1010" width="120" height="120" as="geometry" />
        </mxCell>
        <mxCell id="wKgS_p8YZRCs9jAlfxQY-1577" value="&lt;font style=&quot;font-size: 30px&quot;&gt;&lt;b&gt;&lt;font style=&quot;font-size: 30px&quot;&gt;Architecture Bioclimatique&lt;/font&gt;&lt;/b&gt;&lt;/font&gt;" style="text;html=1;strokeColor=none;fillColor=none;align=center;verticalAlign=middle;whiteSpace=wrap;rounded=0;sketch=1;" vertex="1" parent="1">
          <mxGeometry x="1470" y="854" width="180" height="46" as="geometry" />
        </mxCell>
        <mxCell id="wKgS_p8YZRCs9jAlfxQY-1578" value="&lt;font style=&quot;font-size: 30px&quot;&gt;&lt;b&gt;&lt;font style=&quot;font-size: 30px&quot;&gt;&amp;nbsp;Réduire les déchets, la pollution, réemploi&lt;br&gt;&lt;/font&gt;&lt;/b&gt;&lt;/font&gt;" style="text;html=1;strokeColor=none;fillColor=none;align=center;verticalAlign=middle;whiteSpace=wrap;rounded=0;sketch=1;" vertex="1" parent="1">
          <mxGeometry x="1160" y="1105" width="330" height="136" as="geometry" />
        </mxCell>
      </root>
    </mxGraphModel>
  </diagram>
</mxfile>
